<mxfile host="app.diagrams.net" modified="2024-04-20T06:28:40.738Z" agent="Mozilla/5.0 (Windows NT 10.0; Win64; x64) AppleWebKit/537.36 (KHTML, like Gecko) Chrome/124.0.0.0 Safari/537.36" etag="ke0z-44p9Iam-Ddx3Pl9" version="24.2.7" type="github">
  <diagram name="第 1 页" id="VML5djuIOkUxVSBDAtYv">
    <mxGraphModel dx="1299" dy="552" grid="0" gridSize="10" guides="1" tooltips="1" connect="1" arrows="1" fold="1" page="0" pageScale="1" pageWidth="827" pageHeight="1169" math="0" shadow="0">
      <root>
        <mxCell id="0" />
        <mxCell id="1" parent="0" />
        <mxCell id="laOTbYihrMhidJdAaKEx-9" value="" style="rounded=1;whiteSpace=wrap;html=1;dashed=1;strokeColor=#d79b00;fillColor=#ffe6cc;" vertex="1" parent="1">
          <mxGeometry x="30" y="140" width="100" height="90" as="geometry" />
        </mxCell>
        <mxCell id="laOTbYihrMhidJdAaKEx-1" value="&lt;font style=&quot;font-size: 16px;&quot;&gt;6&lt;/font&gt;" style="rounded=0;whiteSpace=wrap;html=1;fillColor=#dae8fc;strokeColor=#6c8ebf;" vertex="1" parent="1">
          <mxGeometry x="40" y="150" width="40" height="50" as="geometry" />
        </mxCell>
        <mxCell id="laOTbYihrMhidJdAaKEx-3" value="" style="rounded=0;whiteSpace=wrap;html=1;fillColor=#d5e8d4;strokeColor=#82b366;" vertex="1" parent="1">
          <mxGeometry x="40" y="200" width="40" height="20" as="geometry" />
        </mxCell>
        <mxCell id="laOTbYihrMhidJdAaKEx-7" value="&lt;font style=&quot;font-size: 16px;&quot;&gt;12&lt;/font&gt;" style="rounded=0;whiteSpace=wrap;html=1;fillColor=#dae8fc;strokeColor=#6c8ebf;" vertex="1" parent="1">
          <mxGeometry x="80" y="150" width="40" height="50" as="geometry" />
        </mxCell>
        <mxCell id="laOTbYihrMhidJdAaKEx-8" value="" style="rounded=0;whiteSpace=wrap;html=1;fillColor=#d5e8d4;strokeColor=#82b366;" vertex="1" parent="1">
          <mxGeometry x="80" y="200" width="40" height="20" as="geometry" />
        </mxCell>
        <mxCell id="laOTbYihrMhidJdAaKEx-10" value="" style="rounded=1;whiteSpace=wrap;html=1;dashed=1;strokeColor=#d79b00;fillColor=#ffe6cc;" vertex="1" parent="1">
          <mxGeometry x="180" y="140" width="100" height="90" as="geometry" />
        </mxCell>
        <mxCell id="laOTbYihrMhidJdAaKEx-11" value="&lt;font style=&quot;font-size: 16px;&quot;&gt;16&lt;/font&gt;" style="rounded=0;whiteSpace=wrap;html=1;fillColor=#dae8fc;strokeColor=#6c8ebf;" vertex="1" parent="1">
          <mxGeometry x="190" y="150" width="40" height="50" as="geometry" />
        </mxCell>
        <mxCell id="laOTbYihrMhidJdAaKEx-12" value="" style="rounded=0;whiteSpace=wrap;html=1;fillColor=#d5e8d4;strokeColor=#82b366;" vertex="1" parent="1">
          <mxGeometry x="190" y="200" width="40" height="20" as="geometry" />
        </mxCell>
        <mxCell id="laOTbYihrMhidJdAaKEx-13" value="&lt;font style=&quot;font-size: 16px;&quot;&gt;18&lt;/font&gt;" style="rounded=0;whiteSpace=wrap;html=1;fillColor=#dae8fc;strokeColor=#6c8ebf;" vertex="1" parent="1">
          <mxGeometry x="230" y="150" width="40" height="50" as="geometry" />
        </mxCell>
        <mxCell id="laOTbYihrMhidJdAaKEx-14" value="" style="rounded=0;whiteSpace=wrap;html=1;fillColor=#d5e8d4;strokeColor=#82b366;" vertex="1" parent="1">
          <mxGeometry x="230" y="200" width="40" height="20" as="geometry" />
        </mxCell>
        <mxCell id="laOTbYihrMhidJdAaKEx-15" style="edgeStyle=orthogonalEdgeStyle;rounded=0;orthogonalLoop=1;jettySize=auto;html=1;startArrow=classic;startFill=1;fillColor=#f8cecc;strokeColor=#b85450;strokeWidth=2;" edge="1" parent="1" source="laOTbYihrMhidJdAaKEx-7" target="laOTbYihrMhidJdAaKEx-11">
          <mxGeometry relative="1" as="geometry" />
        </mxCell>
        <mxCell id="laOTbYihrMhidJdAaKEx-16" value="" style="rounded=1;whiteSpace=wrap;html=1;dashed=1;strokeColor=#d79b00;fillColor=#ffe6cc;" vertex="1" parent="1">
          <mxGeometry x="330" y="140" width="100" height="90" as="geometry" />
        </mxCell>
        <mxCell id="laOTbYihrMhidJdAaKEx-17" value="&lt;font style=&quot;font-size: 16px;&quot;&gt;29&lt;/font&gt;" style="rounded=0;whiteSpace=wrap;html=1;fillColor=#dae8fc;strokeColor=#6c8ebf;" vertex="1" parent="1">
          <mxGeometry x="340" y="150" width="40" height="50" as="geometry" />
        </mxCell>
        <mxCell id="laOTbYihrMhidJdAaKEx-18" value="" style="rounded=0;whiteSpace=wrap;html=1;fillColor=#d5e8d4;strokeColor=#82b366;" vertex="1" parent="1">
          <mxGeometry x="340" y="200" width="40" height="20" as="geometry" />
        </mxCell>
        <mxCell id="laOTbYihrMhidJdAaKEx-19" value="&lt;font style=&quot;font-size: 16px;&quot;&gt;34&lt;/font&gt;" style="rounded=0;whiteSpace=wrap;html=1;fillColor=#dae8fc;strokeColor=#6c8ebf;" vertex="1" parent="1">
          <mxGeometry x="380" y="150" width="40" height="50" as="geometry" />
        </mxCell>
        <mxCell id="laOTbYihrMhidJdAaKEx-20" value="" style="rounded=0;whiteSpace=wrap;html=1;fillColor=#d5e8d4;strokeColor=#82b366;" vertex="1" parent="1">
          <mxGeometry x="380" y="200" width="40" height="20" as="geometry" />
        </mxCell>
        <mxCell id="laOTbYihrMhidJdAaKEx-21" style="edgeStyle=orthogonalEdgeStyle;rounded=0;orthogonalLoop=1;jettySize=auto;html=1;startArrow=classic;startFill=1;fillColor=#f8cecc;strokeColor=#b85450;strokeWidth=2;" edge="1" parent="1" target="laOTbYihrMhidJdAaKEx-17">
          <mxGeometry relative="1" as="geometry">
            <mxPoint x="270" y="175" as="sourcePoint" />
          </mxGeometry>
        </mxCell>
        <mxCell id="laOTbYihrMhidJdAaKEx-22" value="" style="rounded=1;whiteSpace=wrap;html=1;dashed=1;strokeColor=#d79b00;fillColor=#ffe6cc;" vertex="1" parent="1">
          <mxGeometry x="480" y="140" width="100" height="90" as="geometry" />
        </mxCell>
        <mxCell id="laOTbYihrMhidJdAaKEx-23" value="&lt;font style=&quot;font-size: 16px;&quot;&gt;38&lt;/font&gt;" style="rounded=0;whiteSpace=wrap;html=1;fillColor=#dae8fc;strokeColor=#6c8ebf;" vertex="1" parent="1">
          <mxGeometry x="490" y="150" width="40" height="50" as="geometry" />
        </mxCell>
        <mxCell id="laOTbYihrMhidJdAaKEx-24" value="" style="rounded=0;whiteSpace=wrap;html=1;fillColor=#d5e8d4;strokeColor=#82b366;" vertex="1" parent="1">
          <mxGeometry x="490" y="200" width="40" height="20" as="geometry" />
        </mxCell>
        <mxCell id="laOTbYihrMhidJdAaKEx-25" value="&lt;font style=&quot;font-size: 16px;&quot;&gt;45&lt;/font&gt;" style="rounded=0;whiteSpace=wrap;html=1;fillColor=#dae8fc;strokeColor=#6c8ebf;" vertex="1" parent="1">
          <mxGeometry x="530" y="150" width="40" height="50" as="geometry" />
        </mxCell>
        <mxCell id="laOTbYihrMhidJdAaKEx-26" value="" style="rounded=0;whiteSpace=wrap;html=1;fillColor=#d5e8d4;strokeColor=#82b366;" vertex="1" parent="1">
          <mxGeometry x="530" y="200" width="40" height="20" as="geometry" />
        </mxCell>
        <mxCell id="laOTbYihrMhidJdAaKEx-27" style="edgeStyle=orthogonalEdgeStyle;rounded=0;orthogonalLoop=1;jettySize=auto;html=1;startArrow=classic;startFill=1;fillColor=#f8cecc;strokeColor=#b85450;strokeWidth=2;" edge="1" parent="1" target="laOTbYihrMhidJdAaKEx-23">
          <mxGeometry relative="1" as="geometry">
            <mxPoint x="420" y="175" as="sourcePoint" />
          </mxGeometry>
        </mxCell>
        <mxCell id="laOTbYihrMhidJdAaKEx-28" value="" style="rounded=1;whiteSpace=wrap;html=1;dashed=1;strokeColor=#d79b00;fillColor=#ffe6cc;" vertex="1" parent="1">
          <mxGeometry x="630" y="140" width="100" height="90" as="geometry" />
        </mxCell>
        <mxCell id="laOTbYihrMhidJdAaKEx-29" value="&lt;font style=&quot;font-size: 16px;&quot;&gt;55&lt;/font&gt;" style="rounded=0;whiteSpace=wrap;html=1;fillColor=#dae8fc;strokeColor=#6c8ebf;" vertex="1" parent="1">
          <mxGeometry x="640" y="150" width="40" height="50" as="geometry" />
        </mxCell>
        <mxCell id="laOTbYihrMhidJdAaKEx-30" value="" style="rounded=0;whiteSpace=wrap;html=1;fillColor=#d5e8d4;strokeColor=#82b366;" vertex="1" parent="1">
          <mxGeometry x="640" y="200" width="40" height="20" as="geometry" />
        </mxCell>
        <mxCell id="laOTbYihrMhidJdAaKEx-31" value="&lt;font style=&quot;font-size: 16px;&quot;&gt;56&lt;/font&gt;" style="rounded=0;whiteSpace=wrap;html=1;fillColor=#dae8fc;strokeColor=#6c8ebf;" vertex="1" parent="1">
          <mxGeometry x="680" y="150" width="40" height="50" as="geometry" />
        </mxCell>
        <mxCell id="laOTbYihrMhidJdAaKEx-32" value="" style="rounded=0;whiteSpace=wrap;html=1;fillColor=#d5e8d4;strokeColor=#82b366;" vertex="1" parent="1">
          <mxGeometry x="680" y="200" width="40" height="20" as="geometry" />
        </mxCell>
        <mxCell id="laOTbYihrMhidJdAaKEx-33" style="edgeStyle=orthogonalEdgeStyle;rounded=0;orthogonalLoop=1;jettySize=auto;html=1;startArrow=classic;startFill=1;fillColor=#f8cecc;strokeColor=#b85450;strokeWidth=2;" edge="1" parent="1" target="laOTbYihrMhidJdAaKEx-29">
          <mxGeometry relative="1" as="geometry">
            <mxPoint x="570" y="175" as="sourcePoint" />
          </mxGeometry>
        </mxCell>
        <mxCell id="laOTbYihrMhidJdAaKEx-34" value="" style="rounded=1;whiteSpace=wrap;html=1;dashed=1;strokeColor=#d79b00;fillColor=#ffe6cc;" vertex="1" parent="1">
          <mxGeometry x="780" y="140" width="100" height="90" as="geometry" />
        </mxCell>
        <mxCell id="laOTbYihrMhidJdAaKEx-35" value="&lt;font style=&quot;font-size: 16px;&quot;&gt;58&lt;/font&gt;" style="rounded=0;whiteSpace=wrap;html=1;fillColor=#dae8fc;strokeColor=#6c8ebf;" vertex="1" parent="1">
          <mxGeometry x="790" y="150" width="40" height="50" as="geometry" />
        </mxCell>
        <mxCell id="laOTbYihrMhidJdAaKEx-36" value="" style="rounded=0;whiteSpace=wrap;html=1;fillColor=#d5e8d4;strokeColor=#82b366;" vertex="1" parent="1">
          <mxGeometry x="790" y="200" width="40" height="20" as="geometry" />
        </mxCell>
        <mxCell id="laOTbYihrMhidJdAaKEx-37" value="&lt;font style=&quot;font-size: 16px;&quot;&gt;62&lt;/font&gt;" style="rounded=0;whiteSpace=wrap;html=1;fillColor=#dae8fc;strokeColor=#6c8ebf;" vertex="1" parent="1">
          <mxGeometry x="830" y="150" width="40" height="50" as="geometry" />
        </mxCell>
        <mxCell id="laOTbYihrMhidJdAaKEx-38" value="" style="rounded=0;whiteSpace=wrap;html=1;fillColor=#d5e8d4;strokeColor=#82b366;" vertex="1" parent="1">
          <mxGeometry x="830" y="200" width="40" height="20" as="geometry" />
        </mxCell>
        <mxCell id="laOTbYihrMhidJdAaKEx-39" style="edgeStyle=orthogonalEdgeStyle;rounded=0;orthogonalLoop=1;jettySize=auto;html=1;startArrow=classic;startFill=1;fillColor=#f8cecc;strokeColor=#b85450;strokeWidth=2;" edge="1" parent="1" target="laOTbYihrMhidJdAaKEx-35">
          <mxGeometry relative="1" as="geometry">
            <mxPoint x="720" y="175" as="sourcePoint" />
          </mxGeometry>
        </mxCell>
        <mxCell id="laOTbYihrMhidJdAaKEx-40" value="" style="rounded=1;whiteSpace=wrap;html=1;dashed=1;strokeColor=#d79b00;fillColor=#ffe6cc;" vertex="1" parent="1">
          <mxGeometry x="930" y="140" width="100" height="90" as="geometry" />
        </mxCell>
        <mxCell id="laOTbYihrMhidJdAaKEx-41" value="&lt;font style=&quot;font-size: 16px;&quot;&gt;67&lt;/font&gt;" style="rounded=0;whiteSpace=wrap;html=1;fillColor=#dae8fc;strokeColor=#6c8ebf;" vertex="1" parent="1">
          <mxGeometry x="940" y="150" width="40" height="50" as="geometry" />
        </mxCell>
        <mxCell id="laOTbYihrMhidJdAaKEx-42" value="" style="rounded=0;whiteSpace=wrap;html=1;fillColor=#d5e8d4;strokeColor=#82b366;" vertex="1" parent="1">
          <mxGeometry x="940" y="200" width="40" height="20" as="geometry" />
        </mxCell>
        <mxCell id="laOTbYihrMhidJdAaKEx-43" value="&lt;font style=&quot;font-size: 16px;&quot;&gt;87&lt;/font&gt;" style="rounded=0;whiteSpace=wrap;html=1;fillColor=#dae8fc;strokeColor=#6c8ebf;" vertex="1" parent="1">
          <mxGeometry x="980" y="150" width="40" height="50" as="geometry" />
        </mxCell>
        <mxCell id="laOTbYihrMhidJdAaKEx-44" value="" style="rounded=0;whiteSpace=wrap;html=1;fillColor=#d5e8d4;strokeColor=#82b366;" vertex="1" parent="1">
          <mxGeometry x="980" y="200" width="40" height="20" as="geometry" />
        </mxCell>
        <mxCell id="laOTbYihrMhidJdAaKEx-45" style="edgeStyle=orthogonalEdgeStyle;rounded=0;orthogonalLoop=1;jettySize=auto;html=1;startArrow=classic;startFill=1;fillColor=#f8cecc;strokeColor=#b85450;strokeWidth=2;" edge="1" parent="1" target="laOTbYihrMhidJdAaKEx-41">
          <mxGeometry relative="1" as="geometry">
            <mxPoint x="870" y="175" as="sourcePoint" />
          </mxGeometry>
        </mxCell>
        <mxCell id="laOTbYihrMhidJdAaKEx-46" value="" style="rounded=1;whiteSpace=wrap;html=1;dashed=1;strokeColor=#d79b00;fillColor=#ffe6cc;" vertex="1" parent="1">
          <mxGeometry x="1080" y="140" width="100" height="90" as="geometry" />
        </mxCell>
        <mxCell id="laOTbYihrMhidJdAaKEx-47" value="&lt;font style=&quot;font-size: 16px;&quot;&gt;90&lt;/font&gt;" style="rounded=0;whiteSpace=wrap;html=1;fillColor=#dae8fc;strokeColor=#6c8ebf;" vertex="1" parent="1">
          <mxGeometry x="1090" y="150" width="40" height="50" as="geometry" />
        </mxCell>
        <mxCell id="laOTbYihrMhidJdAaKEx-48" value="" style="rounded=0;whiteSpace=wrap;html=1;fillColor=#d5e8d4;strokeColor=#82b366;" vertex="1" parent="1">
          <mxGeometry x="1090" y="200" width="40" height="20" as="geometry" />
        </mxCell>
        <mxCell id="laOTbYihrMhidJdAaKEx-49" value="&lt;font style=&quot;font-size: 16px;&quot;&gt;92&lt;/font&gt;" style="rounded=0;whiteSpace=wrap;html=1;fillColor=#dae8fc;strokeColor=#6c8ebf;" vertex="1" parent="1">
          <mxGeometry x="1130" y="150" width="40" height="50" as="geometry" />
        </mxCell>
        <mxCell id="laOTbYihrMhidJdAaKEx-50" value="" style="rounded=0;whiteSpace=wrap;html=1;fillColor=#d5e8d4;strokeColor=#82b366;" vertex="1" parent="1">
          <mxGeometry x="1130" y="200" width="40" height="20" as="geometry" />
        </mxCell>
        <mxCell id="laOTbYihrMhidJdAaKEx-51" style="edgeStyle=orthogonalEdgeStyle;rounded=0;orthogonalLoop=1;jettySize=auto;html=1;startArrow=classic;startFill=1;fillColor=#f8cecc;strokeColor=#b85450;strokeWidth=2;" edge="1" parent="1" target="laOTbYihrMhidJdAaKEx-47">
          <mxGeometry relative="1" as="geometry">
            <mxPoint x="1020" y="175" as="sourcePoint" />
          </mxGeometry>
        </mxCell>
        <mxCell id="laOTbYihrMhidJdAaKEx-54" value="" style="image;aspect=fixed;perimeter=ellipsePerimeter;html=1;align=center;shadow=0;dashed=0;spacingTop=3;image=img/lib/active_directory/secure.svg;" vertex="1" parent="1">
          <mxGeometry x="237.2" y="119" width="25.6" height="40" as="geometry" />
        </mxCell>
        <mxCell id="laOTbYihrMhidJdAaKEx-55" value="" style="image;aspect=fixed;perimeter=ellipsePerimeter;html=1;align=center;shadow=0;dashed=0;spacingTop=3;image=img/lib/active_directory/secure.svg;" vertex="1" parent="1">
          <mxGeometry x="217.2" y="180" width="25.6" height="40" as="geometry" />
        </mxCell>
      </root>
    </mxGraphModel>
  </diagram>
</mxfile>
